<?xml version="1.0" standalone="no"?>
<!DOCTYPE svg PUBLIC "-//W3C//DTD SVG 20010904//EN"
 "http://www.w3.org/TR/2001/REC-SVG-20010904/DTD/svg10.dtd">
<svg version="1.0" xmlns="http://www.w3.org/2000/svg"
 width="1300.000000pt" height="866.000000pt" viewBox="0 0 1300.000000 866.000000"
 preserveAspectRatio="xMidYMid meet">
<metadata>
Created by potrace 1.15, written by Peter Selinger 2001-2017
</metadata>
<g transform="translate(0.000000,866.000000) scale(0.100000,-0.100000)"
fill="#000000" stroke="none">
<path d="M10836 5084 c-4 -15 -12 -24 -20 -21 -7 3 -32 -15 -57 -40 -24 -24
-56 -47 -70 -50 -21 -4 -26 -9 -21 -27 5 -19 4 -20 -12 -6 -17 13 -21 11 -48
-19 -16 -18 -34 -31 -40 -29 -15 5 -48 -22 -48 -39 0 -7 -7 -13 -15 -13 -8 0
-15 -5 -15 -11 0 -5 -4 -7 -10 -4 -5 3 -10 1 -10 -5 0 -14 -25 -40 -39 -40 -6
0 -11 -11 -11 -25 0 -14 -4 -25 -10 -25 -5 0 -10 -5 -10 -10 0 -7 6 -7 19 0
11 5 31 10 45 10 13 0 32 7 41 16 11 11 25 14 45 11 16 -4 30 -2 32 4 4 13
143 13 165 -1 15 -9 10 -10 -22 -5 -52 7 -81 -9 -42 -24 15 -6 27 -15 27 -20
0 -14 -32 -29 -48 -24 -7 3 -23 -2 -35 -9 -14 -9 -38 -13 -64 -10 -30 3 -47
-1 -58 -12 -9 -9 -21 -14 -26 -11 -5 3 -37 -1 -71 -10 -35 -8 -78 -17 -96 -19
-18 -2 -36 -6 -39 -10 -4 -3 -15 2 -25 11 -18 16 -18 16 -12 -3 7 -17 6 -17
-9 -5 -14 11 -18 11 -23 -2 -3 -8 -16 -14 -30 -13 -31 1 -31 14 0 26 26 9 39
25 43 52 2 11 -8 20 -32 28 -18 6 -35 16 -37 22 -2 6 -16 -1 -30 -15 -26 -26
-27 -26 -70 -11 -24 8 -55 13 -69 10 -15 -3 -38 3 -57 14 -21 13 -41 18 -61
14 -18 -4 -43 1 -66 12 -21 9 -40 13 -43 8 -9 -11 -42 -14 -42 -4 0 5 6 10 13
13 24 8 -13 36 -47 35 -43 -1 -56 8 -56 38 0 13 -4 24 -9 24 -5 0 -19 19 -30
43 -40 79 -48 85 -133 89 l-77 4 -66 -66 c-36 -36 -65 -71 -65 -78 0 -6 -4
-12 -10 -12 -5 0 -10 -7 -10 -15 0 -10 -7 -15 -17 -13 -12 2 -19 -4 -21 -19
-4 -26 6 -29 33 -9 22 16 55 10 55 -11 0 -11 -8 -14 -30 -11 -16 3 -30 0 -30
-5 0 -5 -10 -7 -21 -4 -12 3 -18 2 -13 -2 15 -14 105 -32 125 -26 23 8 42 -32
37 -79 -3 -28 -6 -31 -38 -30 -19 0 -46 3 -60 5 -20 3 -28 -2 -42 -31 -11 -21
-31 -40 -49 -48 -17 -7 -29 -18 -27 -25 4 -15 -73 -91 -97 -95 -35 -7 -138
-67 -152 -89 -9 -13 -25 -23 -38 -23 -27 0 -50 -24 -39 -42 4 -7 -2 -4 -14 6
-43 37 -30 10 19 -42 l50 -53 27 17 c50 33 134 74 151 74 28 0 64 -66 69 -127
5 -53 4 -56 -17 -50 -11 3 -23 2 -26 -3 -6 -10 46 -20 111 -20 42 0 54 3 54
16 0 30 18 3 25 -38 4 -25 18 -52 34 -67 14 -14 33 -48 41 -76 15 -47 18 -50
47 -47 24 3 36 -3 54 -26 13 -16 34 -34 45 -40 31 -16 48 -137 22 -153 -6 -4
-7 -12 -3 -19 5 -9 4 -11 -3 -6 -17 11 -15 -9 3 -24 8 -7 15 -17 15 -23 0 -6
8 -19 17 -29 14 -15 14 -21 3 -31 -10 -10 -12 -9 -7 4 7 22 -29 44 -37 22 -4
-8 -1 -22 5 -29 6 -7 7 -19 3 -25 -4 -8 -3 -9 5 -5 6 4 14 0 17 -8 3 -9 10
-13 15 -10 16 9 69 -7 69 -21 0 -7 7 -15 15 -19 8 -3 15 -10 15 -17 0 -6 -7
-8 -16 -5 -12 4 -14 1 -9 -13 3 -11 2 -22 -4 -25 -5 -3 -7 -14 -4 -25 2 -10
-4 -26 -14 -36 -10 -10 -22 -28 -28 -39 -6 -11 -25 -23 -44 -27 -18 -4 -38
-12 -44 -18 -6 -6 -23 -11 -38 -11 -15 0 -31 -4 -34 -10 -3 -5 -17 -10 -30
-10 -13 0 -27 -4 -30 -10 -3 -5 -20 -10 -36 -10 -17 0 -28 -4 -24 -10 7 -12
181 -4 239 11 23 5 62 21 88 35 52 27 157 46 144 26 -4 -7 -16 -12 -27 -12
-10 0 -19 -4 -19 -8 0 -5 -13 -7 -30 -4 -18 2 -35 -2 -44 -11 -13 -13 -6 -14
62 -11 42 2 82 6 89 9 25 9 180 -14 211 -32 17 -10 32 -21 32 -24 0 -22 81
-85 103 -81 4 1 7 -4 7 -10 1 -8 6 -6 14 5 11 15 15 15 25 3 7 -8 22 -17 35
-20 13 -3 35 -21 50 -40 19 -25 36 -36 66 -41 39 -7 50 -18 30 -30 -22 -14 12
-35 56 -35 48 0 50 1 32 30 -17 27 -8 32 58 28 l59 -4 -32 -13 c-58 -23 -40
-36 62 -44 72 -6 232 20 280 44 50 26 105 78 105 99 0 29 38 58 107 80 37 13
89 33 114 46 58 29 206 149 242 198 27 34 27 35 7 46 -15 8 -20 8 -20 -2 0 -7
-16 -27 -36 -43 -20 -17 -43 -39 -52 -49 -58 -68 -72 -78 -105 -73 -177 27
-247 51 -207 70 6 3 5 4 -2 3 -7 -1 -18 -20 -24 -42 -23 -79 -26 -84 -50 -84
-12 0 -26 -4 -29 -10 -3 -5 -11 -10 -16 -10 -6 0 -7 5 -3 12 4 7 3 8 -4 4 -7
-4 -12 -16 -12 -27 0 -12 -7 -19 -18 -19 -11 0 -26 -8 -35 -18 -16 -17 -15
-18 17 -14 23 3 38 12 47 28 7 13 16 24 21 24 12 0 10 -7 -9 -31 -41 -50 -55
-60 -71 -53 -9 4 -35 9 -57 12 -22 2 -46 11 -52 20 -7 9 -13 12 -13 8 0 -5 -6
-3 -14 3 -16 13 -66 -4 -66 -23 0 -6 -15 -16 -34 -22 -37 -11 -76 0 -76 23 0
7 -7 13 -15 13 -9 0 -18 7 -21 15 -10 25 -24 17 -24 -13 0 -29 -26 -62 -48
-62 -20 0 -13 24 18 60 20 24 29 46 30 71 0 31 -3 35 -25 35 -23 0 -24 -3 -19
-38 8 -50 -1 -75 -21 -58 -8 7 -15 9 -15 4 0 -5 -4 -15 -9 -22 -12 -20 -54 3
-74 41 -22 42 -46 139 -38 152 3 6 8 -1 9 -15 4 -24 4 -23 17 8 8 18 21 32 30
32 8 0 15 5 15 10 0 6 5 10 10 10 7 0 7 -6 1 -19 -6 -10 -7 -21 -3 -25 3 -4
-1 -4 -9 -1 -24 9 -33 -35 -11 -51 14 -11 19 -10 29 3 10 14 10 18 0 25 -9 6
-9 8 0 8 7 0 12 10 12 23 -1 12 2 33 5 45 4 20 3 22 -9 12 -12 -10 -15 -9 -15
7 0 39 -21 43 -51 11 l-28 -31 -6 29 c-3 16 -10 37 -16 46 -12 24 -11 28 5 22
8 -3 23 7 35 24 25 36 27 46 4 38 -16 -6 -16 -6 0 12 9 10 17 24 17 30 0 7 6
12 13 12 25 0 139 124 163 178 28 62 28 59 10 59 -8 0 -12 -5 -10 -11 2 -6 -7
-33 -20 -61 l-23 -50 3 69 c2 61 5 72 33 100 17 18 31 39 31 48 0 9 6 23 13
30 7 7 16 21 20 32 5 14 4 17 -8 12 -8 -3 -15 -1 -15 4 0 6 11 10 25 10 14 0
25 6 25 13 0 17 90 44 195 57 44 6 82 15 83 20 2 6 16 10 30 9 15 0 21 -3 14
-6 -18 -7 5 -33 30 -33 18 0 18 -1 4 -16 -22 -21 -22 -52 -1 -34 12 10 15 9
15 -5 0 -10 5 -15 13 -12 11 4 40 -17 32 -24 -8 -9 99 -8 109 0 21 18 221 89
313 112 51 12 90 26 87 31 -3 4 3 8 13 8 10 1 34 9 53 20 l35 19 -29 1 c-37 0
-25 13 27 30 26 8 37 17 37 31 0 17 -8 19 -77 19 -43 0 -107 -4 -143 -9 -91
-13 -302 -25 -384 -22 -39 1 -98 -5 -137 -14 -38 -10 -80 -14 -93 -11 -39 10
-42 40 -7 78 16 18 40 45 53 59 20 23 130 99 143 99 3 0 24 15 48 33 34 26 52
32 87 32 25 -1 54 -6 66 -13 34 -18 123 -22 140 -5 21 21 18 36 -17 79 -17 22
-38 54 -46 72 -12 29 -18 33 -39 28 -22 -6 -32 1 -66 39 -31 35 -45 44 -62 40
-16 -5 -18 -4 -6 4 13 9 12 12 -5 25 -11 9 -25 16 -30 16 -6 0 -27 9 -47 20
-31 16 -181 43 -238 43 -51 0 -201 -12 -208 -17 -4 -2 -14 -1 -21 3 -17 11 20
47 67 67 17 8 32 19 32 25 0 5 5 7 11 4 6 -4 28 7 49 24 21 17 46 31 54 31 9
0 16 4 16 8 0 15 102 -5 197 -37 81 -29 96 -31 132 -21 23 6 41 14 41 18 0 5
-17 24 -38 45 -33 32 -42 36 -84 34 -25 -1 -44 -5 -41 -9 6 -11 -134 -14 -145
-3 -2 2 5 12 16 23 11 11 23 35 27 53 4 19 12 37 18 40 5 4 6 12 3 18 -12 20
-34 12 -40 -15z m-889 -421 c40 -38 46 -59 26 -93 -21 -37 -51 -50 -80 -37
-13 6 -23 14 -23 18 0 4 -13 7 -28 7 -20 -1 -35 -10 -48 -29 -22 -33 -21 -41
9 -52 20 -6 20 -6 5 7 -10 7 -18 16 -18 20 0 10 58 7 65 -4 4 -6 16 -8 27 -4
14 4 18 2 14 -5 -4 -6 -14 -11 -22 -11 -8 0 -14 -6 -14 -12 0 -7 -4 -19 -9
-27 -7 -11 -21 -8 -75 19 -63 30 -68 31 -86 15 -11 -10 -20 -12 -24 -6 -4 5 3
12 14 16 23 7 27 35 5 35 -8 0 -15 5 -15 11 0 6 -9 8 -22 4 -17 -5 -20 -4 -12
4 14 15 67 4 92 -19 24 -23 39 -13 38 24 -1 21 7 35 31 55 23 18 33 35 33 53
0 29 10 36 56 37 20 1 41 -8 61 -26z m-357 -58 c25 1 37 0 28 -2 -14 -3 -15
-9 -8 -29 6 -16 6 -24 -1 -24 -6 0 -3 -7 6 -16 18 -19 14 -41 -6 -36 -8 2 0
-9 16 -24 17 -15 22 -24 13 -21 -9 3 -21 0 -28 -7 -6 -8 -25 -12 -43 -11 -28
2 -32 6 -29 29 2 18 -2 26 -13 26 -18 0 -20 -16 -2 -23 6 -3 2 -6 -11 -6 -16
-1 -22 -6 -20 -18 2 -13 -6 -17 -34 -19 -28 -2 -38 1 -38 12 0 8 -7 14 -16 14
-24 0 -6 20 19 21 22 1 22 1 -1 7 -31 9 -28 28 4 25 13 -1 22 2 19 7 -5 9 55
50 73 50 7 0 9 -8 5 -17 -6 -17 -5 -17 12 -1 17 16 17 19 3 35 -28 33 -32 46
-12 35 11 -5 39 -8 64 -7z m1100 -108 c24 6 25 0 4 -32 -13 -20 -19 -22 -43
-14 -22 8 -42 5 -90 -12 l-62 -21 -72 23 c-40 13 -84 22 -99 20 -14 -1 -29 2
-32 8 -4 6 -13 8 -21 4 -8 -3 -15 -1 -15 5 0 16 35 20 119 15 44 -3 88 -2 98
2 10 4 51 7 91 6 49 -2 72 1 72 9 0 7 5 6 15 -3 8 -9 24 -13 35 -10z m-909
-94 c8 2 11 2 6 0 -4 -3 -5 -9 -1 -14 3 -5 -1 -9 -9 -9 -9 0 -14 -10 -14 -27
0 -16 -10 -35 -24 -46 -24 -20 -23 -20 241 -15 296 5 411 0 418 -19 2 -8 -6
-13 -21 -13 -14 0 -28 -7 -31 -16 -3 -8 -10 -13 -16 -9 -5 3 -15 -3 -22 -15
-15 -24 -28 -26 -28 -5 0 16 -16 20 -24 6 -3 -4 -16 -6 -28 -4 -15 2 -33 -5
-50 -22 -15 -14 -32 -25 -38 -25 -6 0 -13 -7 -16 -15 -4 -9 -19 -15 -39 -15
-46 0 -51 -14 -7 -18 35 -2 84 -32 53 -32 -11 0 -11 -3 -2 -14 10 -12 8 -13
-11 -8 -22 5 -22 5 -5 -12 25 -25 21 -36 -13 -36 -19 0 -30 -5 -30 -14 0 -8
-7 -16 -15 -20 -18 -7 -20 15 -3 32 9 9 9 12 -1 12 -10 0 -11 3 -2 14 7 9 8
17 2 20 -5 3 -11 0 -14 -6 -3 -10 -7 -10 -21 1 -14 12 -16 12 -10 -4 5 -13 4
-16 -4 -11 -7 4 -12 1 -12 -8 0 -9 -4 -16 -10 -16 -5 0 -10 -7 -10 -16 0 -15
-2 -15 -25 0 -13 9 -31 16 -40 16 -22 0 -65 -30 -65 -44 0 -14 -57 -10 -75 5
-6 5 -19 -4 -30 -22 -11 -16 -23 -29 -27 -29 -14 0 -8 33 9 52 19 21 12 34
-14 23 -10 -5 -21 -9 -25 -9 -4 -1 -14 -10 -22 -21 -21 -27 -20 -1 0 30 10 15
26 25 40 25 21 0 24 5 24 35 0 24 -5 35 -14 35 -8 0 -17 6 -20 13 -3 6 -3 2 0
-10 3 -14 1 -23 -6 -23 -7 0 -14 9 -17 21 -4 16 -11 19 -29 15 -17 -5 -24 -2
-24 8 0 7 9 16 21 19 13 4 19 12 17 23 -6 32 -23 24 -44 -21 -17 -35 -19 -45
-8 -45 15 0 17 -10 8 -34 -9 -23 -24 -20 -24 4 0 11 -7 20 -15 20 -9 0 -12 6
-9 15 4 9 0 15 -8 15 -8 0 -23 18 -33 40 -21 46 -30 50 -39 15 -8 -30 -36 -29
-64 3 -22 25 -37 29 -28 7 4 -11 -3 -17 -24 -22 -17 -3 -30 -12 -30 -19 0 -8
-6 -11 -15 -8 -8 4 -22 1 -30 -6 -8 -7 -15 -9 -15 -4 0 4 -7 -1 -15 -12 -13
-18 -14 -18 -15 -1 0 10 -4 16 -9 13 -5 -3 -12 10 -16 30 -5 29 -1 43 20 74
26 37 26 37 113 44 128 11 145 15 130 34 -11 13 -9 14 12 7 14 -4 27 -11 30
-15 3 -3 28 -7 55 -8 l50 -2 -25 20 c-14 11 -33 18 -42 16 -21 -5 -22 0 -6 44
l11 33 19 -22 c10 -13 18 -30 18 -37 0 -8 12 -20 28 -27 15 -6 30 -16 34 -22
5 -7 13 -7 25 1 22 14 30 36 9 28 -9 -3 -16 -1 -16 5 0 6 3 11 8 12 44 4 77
31 47 37 -18 4 -19 9 -2 26 7 9 16 11 23 5 6 -5 18 -8 25 -6z"/>
<path d="M11272 5055 c-35 -18 -80 -35 -100 -38 -41 -6 -56 -9 -91 -24 l-25
-10 41 -43 40 -44 49 18 c90 33 104 40 91 48 -6 4 -8 10 -4 14 3 4 14 1 23 -7
13 -11 18 -11 21 -2 3 9 11 6 25 -7 12 -11 26 -16 32 -13 6 4 6 8 -2 11 -7 2
-9 9 -6 14 4 6 2 8 -4 4 -6 -3 -13 -2 -16 3 -3 5 1 11 9 15 24 9 15 97 -9 95
-6 -1 -40 -16 -74 -34z"/>
<path d="M3210 5000 c0 -5 -6 -10 -14 -10 -22 0 -39 -28 -41 -71 -1 -24 -9
-45 -19 -52 -10 -7 -26 -32 -36 -55 -22 -48 -18 -53 40 -50 19 2 56 -1 83 -5
l47 -8 2 48 c2 50 1 68 -6 118 -2 17 -4 45 -5 63 -1 27 -5 32 -26 32 -14 0
-25 -4 -25 -10z"/>
<path d="M7528 4679 c-9 -6 -9 -13 -1 -32 15 -32 3 -48 -38 -50 -30 -2 -34 1
-37 26 -4 36 -36 35 -81 -2 -32 -29 -33 -29 -12 -40 16 -9 27 -9 43 0 19 10
25 8 47 -18 22 -26 30 -29 50 -21 14 5 30 7 37 4 6 -2 27 11 45 30 18 19 39
32 45 30 7 -3 18 2 24 10 7 8 18 14 26 14 12 0 40 38 32 45 -8 7 -169 11 -180
4z"/>
<path d="M3255 4640 c-16 -4 -46 -17 -66 -29 -35 -21 -39 -21 -95 -6 -73 19
-75 19 -124 -2 -30 -13 -38 -22 -36 -38 4 -25 29 -27 115 -9 36 8 99 16 139
19 96 5 112 11 112 40 0 30 -7 34 -45 25z"/>
<path d="M7892 4458 c-3 -14 -11 -18 -24 -15 -41 11 -167 -67 -130 -80 23 -8
12 -31 -18 -38 -16 -4 -30 -11 -30 -16 0 -5 -20 -18 -44 -29 -44 -18 -63 -36
-52 -47 6 -6 61 17 166 66 24 12 37 27 44 49 10 37 52 86 65 77 9 -5 61 35 61
47 0 14 -34 2 -38 -14z"/>
<path d="M6064 4411 c-43 -5 -104 -32 -104 -46 0 -2 26 -12 58 -21 31 -10 62
-22 67 -27 7 -7 6 -8 -2 -3 -6 3 -14 0 -16 -6 -4 -10 -6 -10 -6 0 -1 6 -9 12
-19 12 -10 0 -22 4 -27 8 -6 5 -51 21 -100 36 -128 38 -294 38 -380 1 -16 -7
-55 -18 -86 -24 -43 -9 -59 -17 -71 -39 -21 -35 -52 -167 -45 -193 4 -14 0
-19 -14 -19 -10 0 -19 -5 -19 -10 0 -6 -13 -8 -28 -5 -21 3 -29 1 -29 -10 0
-10 5 -11 19 -4 10 5 18 6 19 2 7 -57 6 -62 -13 -52 -10 5 -16 14 -13 18 3 5
-3 12 -12 15 -9 4 -20 1 -24 -6 -4 -7 -12 -9 -16 -4 -4 4 1 14 11 22 19 13 18
14 -10 11 -38 -5 -70 -25 -86 -55 -7 -13 -29 -32 -50 -43 -43 -22 -46 -29 -18
-54 11 -10 20 -24 20 -30 0 -7 7 -18 16 -26 22 -18 53 -81 51 -105 -1 -13 3
-18 16 -16 9 2 27 -4 39 -13 13 -8 30 -15 39 -15 22 0 32 -26 19 -49 -8 -16
-15 -17 -54 -8 -25 6 -43 14 -40 19 3 4 -2 8 -11 8 -10 0 -13 -5 -9 -12 5 -7
3 -8 -7 -2 -18 11 -48 6 -73 -12 -19 -13 -18 -14 12 -20 18 -4 35 -11 38 -15
3 -5 10 -6 16 -3 7 4 8 2 4 -4 -4 -7 -2 -12 3 -12 6 0 11 -7 11 -16 0 -13 -3
-14 -13 -5 -8 6 -17 7 -23 2 -16 -15 -54 -23 -54 -12 0 6 9 11 19 11 11 0 22
4 25 9 3 5 -5 8 -19 7 -14 0 -25 -5 -25 -9 0 -5 -5 -5 -12 -1 -7 4 -8 3 -4 -4
5 -8 0 -12 -12 -12 -11 0 -22 -7 -26 -15 -3 -8 -12 -12 -21 -9 -8 3 -12 11 -9
16 4 6 -6 2 -21 -8 -14 -9 -40 -18 -57 -19 -28 -2 -29 -1 -13 12 11 7 26 13
34 13 11 0 12 3 4 11 -13 13 -79 2 -98 -18 -8 -8 -15 -28 -15 -44 0 -24 -4
-29 -24 -29 -32 0 -57 10 -51 20 8 13 -56 21 -73 9 -15 -10 -15 -10 1 -5 9 3
17 1 17 -4 0 -6 -5 -10 -12 -10 -7 0 -23 -12 -35 -27 -13 -14 -26 -23 -31 -19
-4 4 1 14 12 21 10 8 15 18 12 23 -3 6 -2 12 2 14 4 1 4 21 0 44 -8 40 -21 52
-72 68 -15 5 -16 9 -6 21 13 16 6 50 -9 41 -5 -3 -14 1 -21 9 -14 17 -35 21
-25 5 12 -20 -3 -9 -50 33 -41 38 -47 49 -47 83 0 21 -7 51 -15 65 -15 24 -14
30 7 71 22 44 22 47 6 102 -11 35 -22 56 -29 53 -7 -2 -11 -13 -10 -25 1 -11
-4 -23 -12 -26 -9 -3 -15 0 -15 8 0 18 -27 40 -34 28 -3 -5 -23 -6 -46 -2 -22
4 -40 5 -40 2 0 -2 -6 0 -13 6 -21 17 -56 4 -50 -19 3 -10 0 -19 -6 -19 -6 0
-11 4 -11 9 0 5 -9 7 -21 4 -12 -4 -25 0 -30 8 -14 23 -10 36 6 15 9 -12 20
-16 31 -12 16 6 16 8 -3 27 -30 31 -104 42 -156 24 -23 -8 -56 -15 -73 -15
-36 0 -54 -16 -54 -47 0 -13 -4 -23 -10 -23 -14 0 -12 -27 3 -34 10 -5 10 -7
0 -12 -7 -3 -13 -13 -13 -22 -1 -24 -52 -95 -78 -108 -12 -6 -19 -14 -15 -17
13 -14 -23 -6 -45 9 -29 20 -28 32 6 40 52 13 57 48 8 64 -19 6 -39 16 -44 23
-13 16 3 57 23 57 8 0 15 4 15 10 0 5 -7 7 -15 4 -16 -6 -21 11 -7 20 14 8 1
66 -14 66 -8 0 -38 14 -67 30 -30 17 -67 30 -83 31 -29 1 -29 1 -4 9 21 7 19
8 -13 7 l-38 -2 28 -24 c25 -22 28 -30 26 -81 -1 -31 -8 -81 -17 -111 -8 -30
-17 -73 -20 -96 -4 -37 -2 -43 14 -43 10 0 22 -6 26 -12 4 -7 3 -10 -1 -5 -5
4 -17 -1 -28 -10 -11 -10 -17 -12 -13 -5 4 6 5 12 2 12 -10 0 -39 -64 -71
-155 -37 -109 -39 -111 -76 -130 -27 -14 -30 -14 -46 5 -23 26 -88 27 -126 1
-34 -22 -29 -25 74 -40 167 -25 219 -28 219 -13 0 8 -6 12 -15 8 -8 -3 -15 -1
-15 3 0 15 33 22 42 9 4 -7 8 -8 8 -3 0 6 10 21 21 35 20 24 21 24 32 5 20
-34 19 -70 -3 -126 -16 -39 -19 -63 -14 -89 19 -92 19 -356 1 -415 -9 -28 -20
-69 -25 -92 -8 -39 -7 -42 15 -48 28 -7 30 -21 3 -35 -14 -7 -26 -8 -38 -1
-15 9 -14 11 8 20 14 5 18 10 9 10 -8 1 -23 -5 -33 -12 -17 -13 -17 -16 14
-51 l33 -37 31 28 31 28 -29 -32 c-16 -18 -28 -34 -25 -36 74 -56 90 -72 99
-108 5 -21 14 -56 20 -77 13 -52 37 -74 106 -97 32 -11 65 -26 72 -33 8 -7 18
-10 23 -7 5 4 9 1 9 -5 0 -7 7 -10 15 -6 8 3 15 1 15 -4 0 -17 46 -22 89 -10
22 6 41 14 41 18 0 5 26 14 58 21 31 7 63 15 71 18 10 4 11 0 6 -17 -6 -19 -4
-22 10 -16 14 5 15 4 7 -7 -8 -10 -6 -13 8 -13 10 0 16 4 13 9 -3 5 3 7 13 4
11 -3 37 -8 59 -12 29 -4 35 -3 20 4 -17 8 -17 10 -3 10 9 1 20 -3 23 -9 3 -6
21 -10 40 -10 21 0 43 -8 58 -23 24 -22 24 -23 7 -45 -10 -12 -25 -22 -34 -22
-9 0 -16 -7 -16 -15 0 -8 -5 -15 -11 -15 -6 0 -9 7 -5 15 3 8 2 15 -3 15 -12
0 -21 -39 -10 -46 14 -8 10 -24 -6 -24 -8 0 -15 -5 -15 -11 0 -6 7 -8 16 -5
19 7 54 -20 54 -41 0 -7 9 -13 19 -13 11 0 22 -8 25 -18 3 -9 15 -23 25 -29
26 -16 169 -18 291 -4 133 15 220 19 214 9 -3 -4 0 -8 5 -8 6 0 11 5 11 11 0
5 5 7 11 3 7 -4 9 0 5 14 -6 17 -1 21 40 27 49 7 70 1 35 -10 -23 -7 -28 -24
-8 -26 6 -1 43 -2 81 -3 46 -1 71 -5 73 -13 3 -7 11 -13 19 -13 18 0 19 -76 2
-84 -7 -4 -3 -4 9 -2 12 2 43 -7 69 -21 43 -23 62 -25 248 -34 328 -15 717
-25 729 -17 6 4 15 4 19 2 13 -8 661 -4 888 6 212 9 300 23 300 46 0 7 8 14
17 16 15 3 15 5 -3 22 -16 17 -16 19 -2 13 10 -3 20 -2 23 3 4 6 11 10 17 10
6 0 6 -6 -2 -15 -11 -13 -10 -14 4 -9 9 3 16 9 17 13 3 30 11 57 20 67 6 7 7
19 3 25 -4 7 -3 10 2 7 5 -3 17 5 27 18 10 13 14 24 9 24 -6 0 -13 -8 -17 -17
-7 -17 -8 -16 -15 2 -11 25 -12 44 -2 29 8 -13 75 -6 66 7 -2 5 8 11 23 15 15
3 35 8 44 10 10 3 37 -5 61 -17 43 -21 46 -21 101 -5 31 9 62 22 69 29 7 6 20
18 29 24 20 16 137 38 304 57 72 9 148 22 170 30 22 8 49 18 60 22 11 4 29 8
41 9 11 1 26 5 32 9 21 13 64 18 57 6 -3 -5 -13 -10 -22 -10 -26 0 -5 -13 22
-15 20 0 24 3 19 17 -6 21 5 23 40 7 20 -10 30 -9 50 5 14 9 38 16 53 16 25 0
72 19 48 20 -6 0 -11 8 -12 18 -1 15 6 18 48 18 44 1 50 -2 46 -18 -7 -26 7
-31 27 -9 22 24 12 87 -15 104 -22 14 -25 33 -6 40 8 3 22 22 31 42 14 29 15
39 6 45 -8 5 -10 15 -5 26 5 11 9 28 11 39 1 11 4 34 7 52 4 21 0 36 -9 44 -8
7 -12 20 -8 31 4 14 -2 21 -25 29 -17 6 -30 16 -29 23 4 18 -12 66 -22 66 -5
0 -6 16 -3 36 4 26 1 42 -15 63 -13 17 -18 37 -15 53 3 14 0 29 -6 32 -17 11
-13 41 9 61 26 23 26 67 0 90 -25 23 -33 50 -22 72 5 10 13 37 17 60 6 41 5
43 -30 64 -34 20 -36 24 -30 58 11 69 -33 135 -100 147 -21 4 -36 -3 -67 -31
-24 -22 -46 -34 -55 -31 -11 4 -13 2 -9 -9 3 -9 0 -15 -10 -15 -8 0 -13 -4
-10 -9 3 -5 0 -14 -7 -19 -10 -9 -13 -3 -11 28 1 31 -2 40 -15 40 -12 0 -13 2
-4 8 10 6 10 15 1 40 -7 18 -16 32 -20 32 -4 0 -5 6 -2 14 7 17 -33 31 -129
46 -37 6 -85 19 -105 30 -20 11 -48 20 -63 20 -14 0 -29 3 -33 8 -4 4 -11 7
-14 7 -4 1 -17 4 -28 8 -12 4 -33 3 -48 -3 -18 -6 -25 -6 -21 0 3 6 3 10 -2
10 -4 0 -16 -14 -25 -31 -10 -17 -23 -27 -29 -23 -7 4 -9 0 -5 -14 4 -11 3
-23 -2 -26 -6 -3 -10 0 -9 7 0 6 -1 26 -1 43 l-2 31 -57 -15 c-46 -13 -58 -21
-67 -44 -11 -29 -30 -36 -42 -17 -3 6 -17 9 -30 6 -14 -2 -27 0 -30 5 -3 4
-11 5 -17 1 -7 -4 -23 -8 -37 -9 -14 -1 -36 -5 -50 -9 -20 -5 -22 -5 -10 5 12
9 4 11 -34 7 -34 -3 -54 -1 -63 9 -11 10 -20 11 -33 4 -10 -6 -36 -11 -57 -11
-38 -1 -38 -1 -8 -9 27 -7 26 -8 -16 -9 -51 -1 -85 -25 -51 -35 10 -4 41 -21
68 -38 48 -31 54 -34 74 -37 6 0 10 -11 10 -23 -1 -23 -1 -23 -15 2 -8 14 -14
20 -15 13 0 -7 -7 -10 -15 -7 -26 10 -16 -12 11 -27 l26 -14 -28 -12 c-17 -7
-22 -12 -12 -13 9 0 19 -4 23 -9 3 -6 -15 -9 -45 -6 -28 1 -53 -2 -57 -8 -4
-6 0 -8 11 -4 10 4 15 3 11 -3 -8 -13 -65 -13 -65 0 0 5 7 7 15 4 9 -4 15 0
15 10 0 10 -6 13 -15 10 -9 -4 -15 0 -15 9 0 8 -7 18 -16 21 -10 4 -13 2 -8
-6 5 -7 0 -9 -14 -6 -12 4 -20 2 -16 -3 3 -5 -2 -9 -11 -9 -9 0 -13 5 -10 10
3 6 -3 10 -14 10 -10 0 -48 9 -83 21 -105 34 -130 39 -213 45 -44 3 -114 8
-155 12 l-75 7 -1 55 c-1 75 -14 159 -31 189 -7 15 -13 39 -13 54 0 16 -7 30
-15 33 -14 6 -13 8 2 20 16 12 16 13 1 8 -9 -3 -25 -1 -35 5 -16 9 -16 10 5
11 12 0 22 5 22 11 0 7 -9 9 -21 6 -13 -3 -19 -1 -16 6 4 14 134 41 197 40 88
-1 146 -11 198 -33 50 -22 54 -22 95 -6 23 9 53 16 65 16 23 0 27 20 13 70 -5
17 -9 21 -15 12 -10 -17 -43 -15 -50 3 -3 8 -17 21 -32 27 -21 10 -25 17 -20
40 7 34 -10 47 -18 14 -5 -20 -14 -26 -52 -32 -51 -7 -94 7 -94 31 0 8 -3 15
-7 15 -5 0 -25 16 -45 35 -34 32 -42 35 -98 35 -52 0 -64 4 -84 25 -23 25 -23
25 -41 5 -19 -21 -63 -26 -93 -11 -54 28 -145 62 -160 59 -9 -2 -18 -13 -20
-24 -6 -40 -95 -60 -126 -28 -9 8 -16 24 -16 35 0 17 -38 42 -58 38 -4 -1 -30
-5 -58 -8z m231 -591 c-2 -4 8 -13 23 -21 40 -21 64 -50 52 -64 -5 -6 -7 -15
-3 -18 3 -4 -2 -9 -11 -13 -21 -8 -21 -43 2 -51 9 -3 30 -15 45 -26 27 -18 28
-23 23 -67 l-6 -46 30 4 c19 3 30 10 30 21 0 10 3 12 8 5 12 -18 144 -25 166
-8 11 8 16 14 10 15 -5 0 0 4 11 9 16 7 10 9 -25 10 -25 2 -52 2 -60 1 -8 -1
-4 5 10 13 22 13 33 11 110 -15 47 -16 101 -34 120 -40 19 -6 52 -24 72 -40
20 -16 41 -29 47 -29 5 0 13 -9 16 -20 3 -11 13 -20 21 -20 8 0 14 -4 14 -10
0 -5 6 -10 14 -10 17 0 126 -123 126 -143 0 -8 7 -17 15 -21 20 -7 19 -24 -2
-29 -15 -3 -13 -6 9 -15 27 -11 46 -32 29 -32 -5 0 -13 5 -16 10 -10 16 -25
12 -19 -5 4 -8 1 -15 -6 -15 -7 0 -10 -7 -6 -15 3 -8 1 -15 -4 -15 -6 0 -10 8
-10 18 0 11 -6 6 -16 -13 -21 -41 -30 -49 -39 -34 -5 7 -4 10 2 6 11 -7 53 79
53 106 0 8 -9 17 -19 20 -15 4 -20 -2 -25 -34 -6 -36 -22 -54 -23 -26 -4 51
-8 64 -21 60 -9 -4 -10 -9 -3 -16 14 -14 14 -27 -1 -27 -6 0 -8 3 -5 7 4 4 -7
13 -24 20 -20 8 -28 17 -23 25 6 10 5 10 -7 1 -8 -6 -17 -12 -21 -12 -12 -1
-11 -15 1 -19 6 -2 11 2 11 8 0 10 3 10 15 0 8 -7 12 -17 8 -23 -4 -6 0 -8 10
-4 11 4 17 1 17 -8 0 -8 -11 -17 -25 -21 -14 -3 -22 -10 -19 -15 3 -5 -2 -6
-10 -3 -16 6 -23 25 -8 23 4 -1 16 -1 27 0 16 1 17 3 5 10 -8 6 -18 7 -24 4
-5 -3 -6 -1 -2 5 14 23 -21 17 -52 -9 -37 -33 -45 -35 -61 -15 -8 10 -9 16 -1
21 5 3 13 -1 16 -9 5 -12 10 -13 25 -5 15 8 17 14 9 29 -11 21 -13 41 -2 23
10 -16 56 22 49 42 -4 8 -2 17 4 20 5 4 6 12 3 18 -4 7 -3 8 2 4 5 -5 9 -14 9
-20 1 -7 7 -11 15 -9 8 2 12 0 8 -4 -9 -8 9 -34 23 -34 5 0 9 7 9 15 0 8 -4
15 -10 15 -5 0 -10 5 -10 12 0 6 3 8 6 5 4 -3 15 -2 25 4 12 6 19 6 19 0 0 -5
-8 -11 -17 -13 -12 -2 -14 -6 -6 -11 6 -4 17 -1 25 6 7 8 21 13 31 11 9 -1 17
2 17 7 0 5 -5 9 -11 9 -5 0 -7 4 -4 10 4 6 -1 7 -11 3 -11 -4 -15 -2 -11 4 8
13 -37 38 -52 29 -6 -4 -11 -3 -11 3 0 5 6 12 13 14 6 3 -4 6 -23 7 -19 1 -29
4 -22 7 20 8 14 26 -8 20 -10 -3 -24 1 -31 9 -15 19 -30 18 -23 -1 4 -8 1 -15
-5 -15 -6 0 -11 5 -11 11 0 7 -11 8 -32 4 -26 -6 -30 -5 -25 9 4 9 2 16 -3 16
-6 0 -10 -4 -10 -10 0 -5 -12 -10 -26 -10 -21 0 -24 -4 -19 -20 8 -24 -1 -26
-21 -5 -10 10 -21 12 -32 6 -9 -4 -25 -7 -35 -6 -9 2 -22 -5 -27 -16 -6 -10
-17 -19 -24 -19 -8 0 -16 -7 -20 -15 -3 -9 0 -15 9 -15 8 0 15 4 15 9 0 14 30
7 41 -10 5 -8 9 -10 9 -6 0 5 14 -3 31 -18 18 -14 37 -24 43 -22 6 2 20 -5 31
-16 11 -11 14 -17 8 -13 -8 4 -13 2 -14 -6 0 -10 -2 -10 -6 -1 -3 9 -21 11
-62 7 -48 -5 -59 -4 -64 10 -12 29 -77 17 -77 -15 0 -12 7 -19 20 -19 14 0 20
-7 20 -21 0 -18 -5 -21 -31 -17 -20 3 -33 0 -36 -9 -8 -21 -23 -15 -20 10 1
16 -3 22 -18 22 -11 1 -19 6 -18 11 1 6 -3 11 -10 12 -7 0 -34 7 -62 14 -35 8
-43 13 -27 16 26 4 29 19 5 25 -14 4 -13 5 3 6 27 1 39 28 16 34 -11 3 -8 5 8
6 19 1 26 7 26 21 0 11 -6 20 -13 20 -7 0 -13 7 -13 16 0 14 -1 14 -16 0 -8
-9 -22 -16 -31 -16 -9 0 -33 -5 -54 -12 -37 -10 -38 -12 -23 -29 15 -16 14
-17 -5 -12 -12 3 -21 9 -21 14 0 5 -7 9 -15 9 -8 0 -15 -5 -15 -11 0 -5 -4 -8
-9 -5 -5 3 -11 -1 -15 -9 -3 -8 -11 -15 -18 -15 -9 0 -8 3 2 10 8 5 11 10 5
10 -5 0 -24 -13 -41 -29 -17 -16 -42 -31 -55 -34 -13 -2 -4 -4 21 -5 49 0 115
15 73 17 -12 1 -24 5 -27 10 -3 5 5 8 19 7 14 0 25 -4 25 -8 0 -18 19 -6 23
15 4 19 4 18 6 -5 1 -19 -4 -28 -14 -28 -15 0 -19 -11 -16 -39 2 -7 -2 -10 -8
-6 -6 3 -11 -1 -11 -11 0 -16 -1 -16 -14 1 -14 19 -15 19 -40 -8 -31 -34 -32
-37 -6 -37 12 0 20 7 21 18 1 14 2 14 6 1 5 -20 48 -14 73 11 14 14 15 21 7
31 -7 8 -3 6 9 -4 19 -16 22 -16 34 -2 10 12 16 13 26 4 10 -8 11 -15 4 -24
-5 -6 -6 -16 -2 -20 4 -5 1 -5 -6 -1 -10 6 -10 11 -2 21 7 9 8 15 1 19 -6 4
-15 -3 -21 -14 -8 -15 -8 -20 1 -20 6 0 9 -6 6 -13 -4 -10 2 -13 19 -9 13 2
22 8 19 12 -3 5 5 5 17 2 19 -5 20 -7 6 -10 -10 -2 -18 -8 -18 -13 0 -12 17
-12 25 1 4 7 14 5 28 -5 26 -18 37 -19 37 -3 0 6 -3 8 -6 5 -10 -10 -44 12
-44 28 0 9 -6 12 -17 8 -19 -7 -18 -5 10 17 14 10 17 11 15 0 -2 -7 3 -15 10
-17 7 -3 12 4 12 16 0 12 5 21 11 21 5 0 7 -4 4 -10 -3 -5 2 -10 12 -11 16 0
16 -1 -1 -8 -14 -5 -16 -10 -8 -15 7 -4 16 -5 21 -2 5 3 12 -1 15 -10 5 -12 2
-15 -11 -10 -15 5 -15 4 1 -9 23 -17 36 -19 36 -5 0 6 8 10 18 10 14 0 15 -2
2 -10 -11 -7 -6 -10 20 -9 19 0 55 -4 80 -9 27 -6 49 -7 56 -1 6 5 13 6 16 3
3 -2 8 2 12 11 3 9 -1 18 -9 21 -8 4 -15 10 -15 15 0 6 9 5 21 -1 11 -7 23 -9
26 -6 3 3 -2 8 -11 12 -9 3 -16 10 -16 16 0 5 5 6 11 3 6 -4 13 3 16 15 5 20
7 20 20 -9 9 -18 20 -28 29 -24 8 3 12 9 9 13 -3 5 2 7 12 6 9 -2 17 -10 19
-20 2 -14 0 -15 -12 -5 -17 14 -19 -2 -2 -19 17 -17 -3 -15 -28 3 -18 12 -24
12 -40 0 -18 -13 -18 -14 1 -11 23 4 47 -12 39 -25 -3 -5 2 -12 10 -15 9 -3
13 -11 9 -17 -4 -6 -1 -7 6 -3 7 5 10 14 7 22 -4 10 0 11 18 5 13 -5 29 -5 39
1 9 5 22 6 27 3 6 -3 10 1 10 10 0 10 7 15 18 13 9 -2 17 -10 17 -18 0 -8 -6
-14 -14 -12 -12 3 -12 1 -1 -13 12 -14 10 -15 -13 -6 -20 8 -27 7 -32 -7 -5
-14 -7 -14 -15 -2 -6 9 -10 10 -10 3 0 -6 -12 -14 -27 -16 -16 -3 -8 -5 17 -4
25 1 48 6 52 12 5 6 8 3 8 -7 0 -11 -8 -18 -20 -18 -11 0 -20 -4 -20 -9 0 -5
-8 -12 -17 -15 -20 -8 -78 48 -68 64 3 6 -1 10 -9 10 -10 0 -14 7 -11 23 4 20
3 21 -9 4 -9 -12 -22 -16 -40 -13 -19 3 -26 0 -26 -11 0 -9 6 -13 14 -10 7 3
23 -1 34 -8 10 -8 23 -11 27 -7 5 4 5 2 2 -5 -4 -6 -1 -14 5 -16 8 -3 6 -6 -4
-6 -14 -1 -18 -10 -18 -36 0 -19 -4 -35 -10 -35 -12 0 -9 -22 5 -33 6 -5 4 -7
-5 -4 -8 2 -16 9 -16 15 -1 7 -2 19 -3 27 0 8 -4 14 -8 14 -25 -4 -43 3 -43
16 0 10 10 15 28 15 19 0 23 3 13 9 -11 7 -10 10 5 14 10 3 0 5 -23 4 -24 0
-43 -5 -43 -10 0 -4 -7 -1 -16 7 -15 16 -56 13 -79 -5 -11 -8 -144 -34 -157
-31 -5 1 -8 -6 -8 -16 0 -13 -2 -14 -9 -3 -6 9 -11 10 -15 2 -4 -6 -12 -9 -17
-6 -5 4 -9 3 -9 -2 0 -4 -10 -9 -22 -10 -52 -5 -73 -11 -71 -22 2 -6 -3 -11
-11 -11 -8 0 -17 -6 -19 -12 -3 -7 -6 -2 -7 12 -1 14 -3 40 -4 58 -2 17 0 32
5 32 5 0 9 9 9 20 0 11 5 20 10 20 7 0 6 5 -1 13 -13 13 -128 15 -149 2 -13
-8 -13 -35 1 -35 5 0 8 4 5 9 -3 4 5 13 18 19 19 9 25 8 30 -4 3 -8 14 -14 25
-14 13 0 19 -6 18 -20 -1 -10 -3 -17 -6 -15 -2 3 -10 0 -18 -6 -7 -6 -13 -8
-13 -4 0 5 -8 1 -17 -7 -10 -9 -44 -19 -76 -23 l-59 -6 7 29 c4 22 2 31 -10
36 -9 3 -13 10 -10 16 7 11 -8 14 -19 3 -10 -10 -36 -12 -36 -3 0 5 -8 11 -17
13 -15 4 -14 5 3 6 11 0 26 -5 33 -11 11 -11 12 -9 7 9 -5 16 -1 27 13 40 12
10 21 22 21 27 0 5 17 30 37 55 61 77 60 73 27 65 -16 -4 -36 -13 -45 -20 -8
-8 -21 -14 -28 -14 -7 0 -9 -4 -6 -10 4 -6 -1 -7 -11 -3 -10 4 -15 2 -11 -3 3
-6 -14 -9 -45 -7 -33 3 -48 0 -43 -6 3 -7 -3 -11 -15 -11 -12 0 -29 -4 -38 -9
-9 -5 -46 -11 -82 -14 -75 -6 -112 -16 -105 -27 3 -4 -1 -10 -9 -13 -10 -4
-12 0 -8 15 3 15 1 19 -9 16 -8 -3 -14 -11 -15 -19 0 -8 61 -77 135 -154 75
-77 120 -125 101 -107 -20 17 -45 32 -55 32 -14 0 -16 3 -7 8 8 6 -20 39 -92
110 -56 56 -108 102 -113 102 -6 0 -16 -7 -23 -15 -6 -8 -22 -17 -33 -21 -19
-5 -106 -44 -169 -75 -10 -5 -24 -9 -31 -9 -8 0 -29 -15 -48 -34 -40 -40 -89
-58 -89 -32 0 9 6 16 13 17 6 0 22 13 35 29 l23 30 -30 -6 c-30 -6 -53 6 -62
35 -4 11 -8 10 -21 -3 -9 -9 -21 -16 -26 -16 -5 0 -9 -7 -8 -16 1 -12 -9 -18
-29 -21 -16 -2 -33 -9 -36 -15 -11 -17 -122 -37 -131 -24 -5 7 -8 4 -8 -8 0
-14 -3 -16 -14 -7 -10 8 -23 7 -52 -5 -26 -11 -39 -13 -42 -5 -2 6 -13 11 -24
11 -17 0 -18 -2 -8 -15 11 -13 8 -15 -21 -14 -38 2 -113 -24 -102 -34 3 -4 1
-7 -5 -7 -7 0 -12 16 -12 38 0 27 -3 33 -10 22 -8 -12 -10 -11 -10 8 0 24 -15
30 -23 10 -3 -8 -6 -5 -6 5 -1 10 -7 17 -13 14 -7 -2 -19 3 -26 12 -8 9 -11
11 -8 5 3 -6 -3 -19 -14 -29 -13 -12 -20 -14 -20 -6 0 8 -7 10 -20 6 -12 -4
-20 -2 -20 5 0 6 -5 8 -12 4 -8 -5 -9 -2 -4 11 5 15 4 16 -9 5 -13 -11 -13 -8
-1 26 27 77 50 115 64 109 10 -3 12 0 8 10 -3 8 -2 14 2 14 19 -3 32 4 66 36
21 19 44 35 52 35 8 0 14 5 14 10 0 6 8 14 18 17 9 4 39 26 67 50 27 24 56 41
64 38 8 -3 11 0 8 9 -3 8 1 17 9 20 8 3 14 1 14 -5 0 -6 14 3 31 20 17 17 37
31 44 31 8 0 20 8 27 18 17 23 113 66 127 58 6 -4 16 -4 22 0 8 4 7 9 -2 15
-8 4 2 6 24 5 20 -2 37 1 37 6 0 5 5 6 10 3 6 -3 10 1 10 10 0 9 4 14 9 11 5
-3 12 1 15 10 3 8 10 12 16 9 5 -3 10 1 10 9 0 9 7 16 16 16 8 0 12 -4 9 -10
-3 -5 -1 -10 4 -10 6 0 11 9 11 20 0 10 8 24 18 29 16 10 16 10 0 11 -10 0
-18 -4 -18 -10 0 -15 -27 -12 -33 3 -3 9 8 17 34 24 32 8 39 8 39 -4 0 -11 4
-11 23 -2 12 7 27 19 34 28 7 9 13 11 13 4 0 -6 9 -9 20 -6 11 3 20 0 20 -6 0
-6 5 -11 11 -11 6 0 8 7 5 16 -5 14 -4 15 8 4 12 -10 28 -8 80 9 36 12 73 21
83 22 16 0 16 1 -2 10 -17 7 -15 8 10 7 17 -1 36 1 43 5 6 5 16 5 22 2 6 -4 7
1 3 11 -5 13 -2 16 13 12 19 -5 44 12 44 30 0 11 50 26 58 17 3 -3 -2 -5 -11
-5 -9 0 -19 -4 -22 -10 -10 -17 14 -11 33 8 23 23 74 40 106 37 14 -2 26 1 26
5 0 5 19 11 43 13 73 7 407 5 402 -3z m1925 -69 c0 -5 21 -12 48 -15 89 -13
105 -26 55 -44 l-28 -10 25 -10 c22 -9 22 -11 5 -11 -11 -1 -25 -9 -31 -19
-11 -16 -8 -18 32 -18 44 -1 63 -8 51 -20 -11 -12 -192 -21 -214 -11 -19 8
-20 13 -10 34 10 22 7 27 -21 49 -18 14 -32 31 -32 37 0 8 3 8 8 -1 9 -13 42
-6 42 9 0 5 -8 13 -17 17 -13 5 -5 9 27 13 25 3 48 7 53 7 4 1 7 -2 7 -7z
m-3850 -124 c0 -4 -4 -6 -9 -2 -6 3 -14 -3 -20 -13 -7 -14 -5 -22 9 -34 10 -9
21 -14 24 -11 3 4 6 1 6 -6 0 -6 -7 -14 -15 -17 -8 -4 -12 -10 -9 -15 3 -5 -2
-9 -11 -9 -8 0 -18 -7 -21 -15 -4 -8 -10 -13 -14 -10 -6 4 -22 -28 -22 -45 0
-3 -5 -10 -12 -16 -9 -9 -17 -8 -31 2 -11 8 -13 14 -6 14 7 0 9 5 6 10 -3 6
-1 10 4 10 6 0 11 -8 11 -17 0 -15 2 -16 10 -3 15 23 12 30 -14 30 -13 0 -26
-7 -30 -15 -7 -20 -22 -19 -43 4 -10 11 -31 24 -46 30 -15 6 -27 16 -27 22 0
6 7 9 15 6 8 -4 17 -2 20 3 4 6 13 10 21 10 8 0 13 -4 10 -8 -2 -4 4 -13 15
-20 16 -10 19 -9 19 3 0 8 5 15 11 15 5 0 7 -6 3 -12 -6 -10 -4 -10 7 -2 8 6
28 9 45 8 l30 -3 -10 48 c-9 47 -8 50 20 74 26 24 30 25 42 10 6 -9 12 -21 12
-26z m3860 -146 c57 -51 85 -52 130 -6 19 20 40 33 47 31 7 -3 10 1 6 10 -3 7
-1 14 5 14 17 0 23 -31 10 -49 -51 -67 -121 -101 -170 -82 -36 14 -132 122
-117 132 16 10 32 0 89 -50z m5 -281 c-3 -4 2 -11 11 -14 8 -3 13 -2 10 2 -3
4 4 13 14 20 15 9 21 8 31 -6 7 -9 10 -14 5 -10 -10 8 -41 -20 -32 -29 3 -3
13 0 23 8 11 9 14 10 9 2 -5 -9 1 -12 24 -9 27 3 30 1 24 -17 -4 -13 -2 -17 5
-13 6 4 11 3 11 -1 0 -10 -60 -37 -120 -53 -25 -6 -53 -16 -63 -21 -12 -7 -16
-6 -15 3 2 7 -7 14 -19 16 -14 2 -23 -2 -23 -10 -1 -7 -9 -3 -20 11 -11 13
-20 28 -20 35 1 6 9 1 20 -12 17 -20 20 -21 34 -6 9 8 14 19 11 24 -2 4 6 8
19 8 13 0 35 8 49 18 24 19 24 19 4 36 -11 10 -15 18 -8 18 7 0 9 5 5 12 -4 7
-3 8 5 4 6 -4 9 -11 6 -16z m-713 -33 c-22 -23 -30 -43 -13 -33 5 3 14 0 20
-8 7 -8 23 -17 36 -20 35 -9 31 -22 -12 -50 -52 -33 -87 -72 -78 -87 6 -8 4
-10 -4 -4 -8 4 -25 -2 -42 -14 -43 -32 -74 -42 -89 -28 -10 9 -11 9 -4 -3 7
-12 3 -12 -17 2 l-26 16 -107 -107 c-59 -59 -104 -110 -101 -114 3 -4 2 -5 -2
-2 -4 3 -86 -72 -183 -167 -151 -149 -147 -144 33 38 170 172 207 214 201 230
-7 16 -5 17 7 7 13 -10 25 -3 71 45 31 31 56 66 56 77 0 36 -30 116 -51 136
-20 18 -20 19 -3 13 16 -6 18 -4 13 9 -6 16 8 25 15 10 3 -9 94 -53 107 -53 5
0 12 10 15 23 6 22 98 74 122 69 6 -1 19 7 29 18 10 11 20 20 23 20 3 0 -4
-10 -16 -23z m-3567 -21 c17 -2 35 -4 40 -5 6 -1 3 -6 -5 -11 -8 -5 -10 -10
-5 -10 6 0 3 -5 -5 -10 -12 -8 -10 -10 9 -10 21 0 22 -2 10 -17 -7 -10 -10
-15 -5 -11 11 9 48 -10 41 -22 -9 -14 48 -27 85 -19 19 4 38 5 41 3 4 -2 10 4
12 13 3 10 4 1 2 -19 -2 -21 -15 -52 -29 -71 -24 -32 -28 -33 -73 -27 -27 3
-61 15 -77 25 -16 11 -48 27 -70 35 -21 8 -38 20 -35 25 2 6 8 9 13 7 5 -2 4
4 -3 12 -11 13 -7 16 21 25 18 5 26 10 18 10 -9 1 -22 10 -29 20 -8 11 -21 17
-29 13 -10 -3 -13 -1 -8 6 4 7 1 12 -8 12 -19 0 -20 11 -3 29 7 7 23 10 37 6
14 -3 39 -7 55 -9z m-290 -31 c6 0 9 -9 7 -18 -5 -26 41 -82 69 -84 12 -1 28
6 35 15 7 9 16 14 20 9 4 -4 19 3 33 15 22 20 23 20 8 2 -17 -21 -23 -39 -9
-30 8 5 38 -14 41 -28 2 -5 -3 -12 -10 -17 -13 -8 -6 -12 56 -35 11 -4 26 -6
33 -5 10 2 12 -4 7 -18 -4 -14 -2 -21 7 -21 7 0 19 -9 26 -20 10 -17 10 -20
-2 -20 -8 0 -22 7 -31 17 -21 21 -95 19 -112 -3 -6 -9 -30 -16 -60 -18 -26 -2
-61 -9 -78 -16 -27 -10 -28 -13 -13 -24 13 -10 15 -15 6 -24 -22 -22 -58 -14
-69 14 -9 26 -10 26 -31 8 -19 -17 -19 -16 3 16 13 19 27 37 31 40 16 12 57
80 48 80 -6 0 -10 11 -10 25 0 14 -5 25 -12 25 -6 0 -8 3 -5 7 4 3 2 12 -4 20
-6 7 -8 13 -5 13 4 0 1 7 -8 15 -8 8 -20 15 -27 15 -8 0 -5 7 6 20 10 11 15
20 11 20 -4 0 -4 5 -1 10 4 6 12 7 18 3 7 -4 17 -8 22 -8z m2377 -472 c35 -37
45 -42 71 -37 17 3 37 10 44 16 19 16 27 3 13 -22 -6 -11 -19 -20 -28 -19 -33
3 -35 -1 -12 -26 32 -34 53 -31 87 9 17 20 41 36 61 39 41 8 41 -3 -2 -37 -21
-17 -33 -33 -29 -42 4 -10 0 -12 -12 -8 -11 5 -15 2 -13 -7 5 -22 -32 -62 -75
-81 -44 -21 -47 -21 -47 -8 0 6 7 10 15 10 8 0 15 6 15 14 0 8 6 16 14 19 20
8 14 54 -10 77 -13 13 -24 17 -34 10 -11 -7 -9 -11 13 -19 15 -6 27 -13 27
-16 0 -4 -4 -3 -10 0 -5 3 -10 3 -10 -2 0 -14 -48 -11 -54 3 -3 8 -1 14 5 14
5 0 7 11 3 27 -4 15 -7 33 -7 40 0 7 -49 60 -109 119 -59 58 -108 109 -108
112 0 7 125 -114 192 -185z m2188 110 c130 -5 138 -6 98 -23 -22 -8 -22 -9 5
-9 18 -1 27 -6 27 -17 0 -12 7 -14 33 -9 17 4 37 12 44 17 8 7 23 5 44 -6 37
-19 42 -20 34 -6 -6 9 1 12 38 14 6 0 29 6 50 13 34 11 37 11 37 -7 0 -19 -15
-25 -47 -21 -6 1 -14 -3 -18 -9 -3 -5 -17 -10 -30 -10 -13 0 -27 -4 -30 -10
-4 -6 8 -10 29 -10 20 0 36 -5 36 -11 0 -7 -10 -9 -25 -5 -20 5 -25 3 -25 -13
0 -11 -5 -23 -11 -27 -8 -4 -9 1 -5 17 6 24 6 24 -5 2 -10 -20 -18 -22 -75
-20 -35 2 -64 -1 -64 -6 0 -5 -7 -6 -17 -3 -19 8 -63 -29 -64 -53 0 -10 -3
-11 -5 -4 -3 7 -12 9 -20 6 -7 -3 -11 -10 -7 -16 4 -6 0 -8 -10 -4 -16 6 -32
-18 -22 -34 4 -5 -1 -6 -9 -3 -9 3 -13 10 -10 15 3 5 -2 6 -10 3 -19 -7 -20
-16 -4 -32 7 -7 9 -12 4 -12 -4 0 -14 7 -23 15 -18 19 -31 12 -15 -8 7 -8 7
-18 2 -27 -8 -12 -10 -12 -10 3 0 10 -4 15 -10 12 -5 -3 -10 1 -10 9 0 21 -30
9 -30 -13 0 -9 -12 -24 -26 -34 -13 -10 -24 -15 -23 -10 3 14 -14 47 -33 65
-12 10 -15 19 -8 23 5 3 10 1 10 -4 0 -6 7 -11 15 -11 8 0 15 9 15 20 0 12 7
20 18 20 14 0 15 -2 2 -10 -26 -16 -3 -22 27 -6 19 11 23 15 11 16 -20 0 -22
8 -9 28 5 8 19 11 37 8 16 -4 23 -3 17 0 -22 10 3 43 27 37 15 -4 19 -2 14 10
-4 11 6 22 35 36 22 12 44 20 48 19 5 0 16 2 26 7 15 6 16 10 5 16 -7 5 -20 8
-28 8 -10 0 -9 -3 5 -10 15 -7 12 -8 -15 -4 -22 3 -30 2 -22 -4 10 -6 7 -10
-12 -15 -39 -10 -63 16 -47 50 18 40 14 43 -29 22 -43 -22 -61 -18 -53 11 5
18 42 33 53 21 3 -3 34 -6 70 -7z"/>
<path d="M8687 4253 c3 -10 22 -33 42 -52 20 -18 28 -31 19 -28 -12 4 -18 1
-18 -9 0 -8 -4 -13 -9 -9 -6 3 -13 -1 -18 -9 -9 -15 -177 -51 -193 -41 -6 3
-10 -1 -10 -10 0 -18 33 -57 53 -62 64 -16 197 -42 216 -43 13 0 39 9 58 21
18 12 40 18 48 15 9 -3 15 1 15 10 0 8 -5 12 -10 9 -14 -9 -52 4 -45 16 4 5
16 9 28 9 19 0 17 5 -18 40 -28 29 -41 37 -48 27 -5 -7 -6 -4 -2 10 4 14 1 25
-9 30 -9 5 -36 28 -61 52 -25 24 -42 35 -38 24z"/>
<path d="M2701 4119 c-12 -15 -21 -38 -21 -49 0 -12 -7 -29 -16 -37 -13 -14
-15 -43 -12 -199 l3 -182 29 -6 c16 -3 53 -6 83 -6 30 0 86 -9 124 -21 72 -22
128 -20 146 4 11 13 44 118 68 212 21 80 29 194 17 225 -8 20 -9 14 -8 -33 1
-32 -2 -63 -5 -69 -5 -8 -27 -2 -73 20 -36 18 -67 32 -68 32 -2 0 -3 -15 -3
-34 0 -26 4 -32 15 -28 13 5 13 3 2 -10 -8 -10 -9 -19 -3 -22 5 -3 6 -18 2
-33 -6 -23 -1 -33 33 -65 21 -21 36 -41 32 -45 -4 -4 -11 -1 -16 7 -5 8 -22
15 -37 15 -20 0 -31 7 -41 28 -8 16 -21 31 -30 34 -39 15 -42 54 -7 85 19 16
22 25 15 39 -20 37 -122 129 -164 148 l-44 19 -21 -29z"/>
<path d="M2320 4040 c-30 -10 -49 -18 -42 -19 18 -1 15 -31 -5 -39 -10 -4 -19
-15 -19 -25 -2 -13 3 -16 20 -12 18 5 19 5 4 -5 -10 -6 -18 -18 -18 -25 0 -16
-16 -20 -22 -6 -1 5 -19 12 -39 16 -32 6 -36 4 -48 -21 -9 -20 -15 -24 -20
-15 -6 9 -10 5 -13 -13 -4 -18 -1 -26 8 -26 8 0 14 -9 14 -19 0 -23 50 -51 89
-51 23 0 69 -19 47 -20 -5 0 -3 -6 3 -13 6 -8 8 -17 4 -20 -3 -4 9 -7 28 -7
19 0 58 -11 87 -25 58 -27 97 -32 108 -14 3 6 17 8 32 4 l25 -6 -6 83 c-6 101
-11 116 -42 116 -14 0 -23 -4 -20 -7 5 -9 -45 -27 -97 -37 -37 -6 -38 -5 -38
23 0 17 -9 38 -20 48 -20 18 -27 44 -12 46 71 8 95 18 89 37 -2 10 -6 24 -8
32 -4 14 -25 41 -31 39 -2 -1 -28 -9 -58 -19z"/>
<path d="M11545 3913 c-149 -8 -314 -38 -372 -69 -16 -7 -31 -14 -35 -14 -11
0 -56 -38 -108 -91 -25 -25 -60 -56 -79 -69 -60 -42 -94 -155 -55 -185 17 -13
17 -14 2 -15 -10 0 -18 -5 -18 -10 0 -6 -11 -16 -25 -22 -19 -8 -22 -14 -13
-20 10 -6 9 -8 -3 -8 -21 0 -32 -39 -17 -57 6 -7 19 -11 29 -8 14 5 17 2 13
-9 -4 -11 -2 -15 7 -11 17 6 30 -3 47 -33 18 -31 8 -42 -33 -35 -19 3 -35 3
-35 0 0 -8 102 -39 108 -33 3 3 0 6 -6 6 -7 0 -12 5 -12 11 0 5 4 8 9 5 15
-10 33 22 33 59 0 19 4 35 9 35 5 0 9 -7 9 -15 0 -24 14 -17 33 15 16 26 16
30 3 30 -9 0 -16 -4 -16 -9 0 -5 -8 -7 -19 -4 -10 3 -22 0 -25 -6 -4 -5 -13
-8 -20 -5 -7 3 -16 -2 -19 -10 -9 -24 -26 -19 -33 8 -3 13 -14 26 -25 29 -10
3 -17 1 -13 -4 3 -5 1 -9 -5 -9 -16 0 -22 18 -8 27 7 4 13 16 12 26 0 9 5 17
10 18 6 1 17 5 26 10 10 5 24 3 38 -7 12 -9 25 -13 29 -9 3 3 0 10 -7 15 -11
6 -10 14 8 38 11 17 21 33 21 36 0 4 9 16 20 28 11 12 20 18 20 12 0 -20 20
23 20 44 0 13 4 21 8 18 12 -7 54 23 47 34 -11 18 14 19 51 3 22 -9 53 -18 69
-21 40 -5 44 -11 21 -28 -11 -7 -17 -16 -14 -20 4 -3 16 4 28 16 17 17 24 19
30 10 6 -9 13 -5 25 13 9 14 14 31 10 36 -11 19 29 -1 54 -26 19 -20 21 -27
10 -34 -8 -5 -10 -9 -5 -9 5 0 18 7 28 17 17 15 18 15 18 -3 0 -15 2 -16 9 -5
5 8 16 11 24 8 9 -3 27 5 44 20 l28 26 -28 -7 c-30 -7 -36 4 -12 24 12 10 18
10 29 1 11 -10 20 -10 36 -1 12 6 19 14 16 17 -3 3 -12 0 -21 -7 -9 -7 -19
-10 -22 -6 -4 4 -1 11 7 17 11 7 7 8 -15 4 -34 -5 -85 14 -85 32 0 7 7 10 15
7 17 -7 79 51 70 66 -8 14 55 69 88 76 31 7 40 45 10 42 -10 -1 -45 -3 -78 -5z"/>
<path d="M1438 2267 c-26 -12 -26 -13 -8 -35 10 -12 24 -21 31 -20 22 5 22
-30 0 -37 -23 -7 -36 -34 -22 -48 12 -12 31 0 31 21 0 11 3 13 11 5 8 -8 6
-18 -6 -36 -20 -31 -25 -169 -7 -175 7 -2 12 -10 12 -18 0 -20 38 -17 43 4 2
9 8 -2 12 -25 7 -38 11 -43 35 -43 23 0 29 -5 34 -32 6 -31 8 -32 21 -15 13
18 14 18 25 -4 10 -17 14 -19 21 -8 5 8 9 10 10 4 0 -5 7 6 14 25 l13 35 3
-35 c2 -19 3 -45 4 -57 2 -36 15 -40 15 -5 0 18 5 32 10 32 6 0 10 -4 10 -10
0 -5 8 -10 19 -10 10 0 30 -12 45 -26 20 -21 26 -23 26 -10 0 9 -4 16 -10 16
-5 0 -10 5 -10 10 0 6 6 10 13 10 13 0 37 -53 37 -83 0 -24 12 -21 34 8 22 30
36 19 36 -29 0 -27 1 -28 13 -13 8 11 21 16 37 14 20 -4 25 -10 23 -31 -1 -17
3 -26 13 -26 8 0 14 9 14 20 0 23 15 27 23 6 4 -10 24 -16 54 -18 l48 -3 0
-46 c0 -39 3 -45 18 -41 9 2 17 -1 17 -7 0 -7 10 -11 23 -9 16 2 21 -2 19 -13
-1 -9 6 -23 15 -30 16 -13 17 -12 4 4 -20 25 -6 32 17 9 15 -15 23 -17 32 -8
10 8 12 7 8 -5 -5 -12 0 -14 26 -10 l31 5 -27 10 c-44 16 -32 29 22 24 27 -3
53 -1 59 5 6 6 11 1 16 -12 3 -12 13 -21 21 -21 8 0 14 -4 14 -9 0 -10 49 -9
65 1 6 4 17 3 25 -3 8 -5 29 -9 47 -9 22 0 33 -6 36 -17 4 -17 5 -17 6 0 2 31
31 20 31 -13 0 -16 5 -30 10 -30 6 0 10 7 10 15 0 8 7 15 15 15 8 0 15 -4 15
-10 0 -5 -4 -10 -10 -10 -5 0 -10 -4 -10 -10 0 -18 36 -10 80 18 2 2 -2 7 -10
12 -8 5 -11 12 -7 17 12 12 28 -20 22 -44 -7 -29 6 -29 31 -2 15 17 16 23 6
40 -10 16 -10 19 3 19 14 0 20 -22 17 -62 -1 -12 5 -18 17 -18 11 0 22 -6 24
-12 3 -7 6 -4 6 8 1 23 30 54 50 54 9 0 11 -8 7 -24 -5 -21 -1 -25 34 -34 23
-5 40 -6 40 -1 0 5 -11 9 -25 9 -22 0 -25 4 -25 39 0 26 5 41 16 45 26 10 34
7 33 -11 0 -11 -3 -13 -6 -5 -2 6 -9 12 -14 12 -12 0 -12 -57 1 -65 6 -3 10
-1 10 6 0 7 14 0 30 -16 23 -22 33 -26 42 -17 7 7 20 12 29 12 10 0 19 6 22
13 3 8 11 4 26 -12 11 -13 21 -19 21 -13 0 18 21 14 36 -5 13 -17 15 -17 25 0
13 22 28 22 44 0 12 -17 14 -17 34 1 21 19 21 19 21 -9 0 -15 -8 -34 -17 -41
-17 -13 -17 -13 0 -14 9 0 17 -8 18 -17 0 -15 2 -15 9 2 5 11 9 31 9 45 1 14
6 32 11 40 9 13 12 13 21 -2 7 -14 23 -18 64 -18 50 0 53 -2 51 -23 -2 -19 2
-23 23 -22 14 0 32 4 39 8 11 8 16 2 13 -16 -1 -4 8 -3 20 3 27 15 40 3 16
-15 -10 -7 -32 -11 -52 -8 -27 4 -35 1 -35 -11 0 -13 8 -15 34 -12 21 3 37 0
40 -7 3 -8 10 -6 20 7 8 10 13 23 9 29 -3 6 -1 7 4 4 6 -4 8 -17 6 -30 -4 -20
22 -58 34 -49 1 1 2 -1 1 -5 -2 -5 -7 -7 -13 -5 -5 2 -2 -5 8 -16 9 -10 16
-21 15 -23 -2 -2 2 2 9 10 7 8 10 17 8 22 -3 4 -2 10 3 13 5 3 9 -1 10 -9 1
-8 3 -21 4 -28 1 -8 7 -14 14 -14 9 0 7 8 -4 26 -16 24 -16 25 2 18 14 -6 16
-4 9 5 -6 7 -9 23 -8 36 1 12 -3 22 -8 22 -5 0 -7 7 -3 15 3 8 1 15 -4 15 -14
0 -22 -18 -11 -25 5 -3 8 -15 6 -27 -5 -26 -13 -34 -22 -23 -5 4 -2 10 5 12
13 5 7 23 -9 23 -6 0 -8 -4 -5 -9 3 -5 -1 -12 -9 -15 -13 -4 -13 -2 -5 14 9
16 8 18 -5 14 -8 -4 -15 -1 -15 6 0 8 9 10 25 6 32 -8 33 2 1 14 -21 7 -24 14
-19 41 3 21 1 29 -6 24 -6 -3 -9 -10 -6 -14 2 -5 -6 -8 -18 -7 -16 1 -21 7
-19 21 3 20 2 20 -13 1 -8 -11 -18 -16 -22 -11 -5 4 -2 10 5 12 6 3 9 9 6 15
-3 5 -13 0 -21 -11 -8 -12 -12 -25 -9 -29 3 -5 -1 -9 -8 -9 -9 0 -12 7 -8 15
4 12 1 14 -13 9 -15 -6 -16 -5 -5 8 11 14 7 19 -13 16 -4 0 -6 5 -5 11 2 8 -5
12 -17 10 -16 -2 -17 -1 -5 7 10 7 19 6 31 -5 15 -13 17 -13 23 1 3 9 2 14 -3
11 -5 -3 -14 1 -21 9 -9 11 -16 12 -26 4 -16 -13 -30 -6 -46 24 -10 19 -9 21
4 9 9 -7 19 -9 22 -4 7 12 -58 74 -69 65 -4 -5 -5 -3 -2 3 3 6 -74 89 -171
186 l-177 175 -169 38 -169 37 -173 -173 c-143 -143 -171 -176 -163 -190 5
-10 9 -21 9 -26 -1 -4 -7 3 -14 16 -9 16 -16 20 -20 12 -4 -7 -2 -19 6 -29 11
-14 8 -14 -17 2 l-30 19 19 -21 c19 -22 19 -22 -2 -22 -12 0 -22 -5 -22 -11 0
-5 -5 -7 -10 -4 -6 4 -8 10 -5 15 3 4 -7 7 -22 5 -44 -5 -53 4 -51 49 1 41 1
41 5 5 4 -34 6 -35 41 -35 42 1 54 12 46 41 l-6 20 15 -20 c15 -19 23 -13 196
160 100 99 181 182 181 185 0 3 -109 31 -243 64 -133 32 -262 64 -287 72 -25
7 -136 38 -247 69 -111 31 -257 74 -324 96 -134 43 -132 43 -171 26z"/>
<path d="M11118 2201 c11 -7 10 -10 -3 -15 -23 -8 -27 -8 -20 4 9 15 -7 12
-80 -11 -35 -12 -62 -25 -60 -29 3 -5 -3 -6 -14 -3 -10 2 -72 -10 -137 -27
-66 -18 -206 -54 -313 -81 -107 -27 -195 -50 -197 -52 -2 -2 73 -79 166 -172
103 -102 166 -171 159 -176 -7 -4 -8 -9 -1 -13 6 -3 12 0 15 6 3 10 7 10 20
-1 23 -18 22 -37 0 -20 -15 11 -16 11 -5 -1 13 -15 17 -34 5 -27 -5 3 -9 -7
-9 -21 -1 -15 1 -21 3 -14 4 10 8 10 21 0 15 -11 15 -11 4 3 -15 20 -6 50 14
42 8 -3 14 -9 14 -15 0 -5 -4 -6 -10 -3 -5 3 -10 2 -10 -3 0 -6 7 -13 16 -16
8 -3 12 -2 9 4 -3 5 3 18 14 29 14 14 16 21 6 24 -7 3 -16 2 -21 -2 -5 -4 -29
12 -54 37 -25 25 -34 38 -20 29 13 -10 32 -17 42 -17 10 0 18 -4 18 -10 0 -5
5 -10 10 -10 22 0 8 22 -22 35 -27 11 -29 14 -11 15 12 0 30 3 40 6 15 5 16 4
3 -5 -13 -10 -13 -12 0 -21 25 -17 50 -12 50 10 0 13 7 20 20 20 11 0 20 5 20
11 0 6 8 8 18 5 28 -8 65 29 58 59 -7 28 1 33 19 9 6 -9 29 -17 52 -19 l40 -3
-3 51 c-4 51 -4 51 7 17 l12 -35 12 30 c11 25 11 33 -2 48 -15 16 -14 17 5 17
11 0 23 -8 25 -17 3 -10 5 -1 6 20 1 30 -3 40 -21 47 -20 9 -18 9 8 4 32 -5
32 -5 36 41 2 36 0 46 -14 51 -10 3 -18 14 -18 24 0 10 -5 22 -11 26 -8 4 -7
9 2 15 10 6 11 9 2 9 -19 0 -16 17 5 24 9 3 23 9 29 12 8 3 17 -5 23 -20 12
-32 45 -34 61 -5 11 21 0 38 -23 39 -22 0 -4 19 25 26 28 6 29 8 12 15 -28 11
-64 11 -47 0z"/>
<path d="M10256 1983 c-7 -8 -61 -20 -191 -44 l-60 -11 -324 -324 c-178 -179
-320 -328 -317 -332 4 -4 15 4 25 17 14 18 20 21 24 10 5 -11 9 -10 21 5 9 11
16 14 16 8 0 -7 5 -12 11 -12 5 0 8 4 5 9 -5 8 62 47 68 39 2 -1 9 -13 15 -25
17 -34 62 -30 99 7 17 17 37 30 46 30 11 0 13 8 9 35 -4 23 -2 35 6 35 6 0 11
-11 11 -25 0 -16 6 -25 15 -25 9 0 26 -7 39 -15 21 -14 24 -14 29 0 5 11 0 15
-18 15 -23 0 -45 33 -31 47 3 4 6 -1 6 -11 0 -12 6 -15 24 -10 16 4 25 1 30
-11 3 -10 12 -15 20 -12 9 4 12 -2 9 -21 -4 -25 -2 -23 36 18 22 25 41 39 41
32 0 -10 4 -10 20 0 29 18 56 -1 53 -38 -1 -16 1 -21 4 -11 2 9 9 17 14 17 5
0 9 12 9 26 0 14 4 23 10 19 6 -3 10 -15 10 -26 0 -36 18 -19 26 24 4 23 9 34
12 25 2 -10 13 -18 24 -18 17 0 19 4 13 28 -5 22 -4 25 6 15 7 -7 20 -13 29
-13 9 0 21 -12 27 -27 l10 -28 8 28 c4 17 14 27 26 27 10 0 19 -4 19 -10 0
-18 31 3 41 26 4 13 15 24 24 24 8 0 15 8 15 18 0 44 78 71 99 35 7 -14 11 -9
22 25 12 42 29 57 29 26 0 -12 6 -15 22 -11 15 4 30 -1 47 -16 l24 -22 -5 41
c-7 47 4 77 17 47 4 -10 8 -26 9 -35 2 -32 21 -19 22 15 2 35 -22 70 -40 60
-6 -3 -8 -3 -4 2 11 12 -11 35 -27 29 -7 -3 -16 -1 -20 5 -4 7 1 8 12 5 10 -4
-43 55 -117 130 -74 75 -137 136 -141 136 -3 0 -9 -3 -13 -7z"/>
<path d="M9959 1916 c-8 -8 -360 -77 -689 -135 -563 -99 -1455 -188 -2042
-203 -60 -2 -108 -5 -108 -8 0 -3 86 -91 190 -194 105 -104 189 -191 186 -194
-3 -2 -1 -13 4 -23 9 -15 6 -17 -20 -14 -17 2 -30 0 -30 -6 0 -5 18 -9 40 -7
39 2 39 3 25 24 -13 20 -12 24 2 36 13 10 15 10 9 0 -5 -8 -1 -21 9 -32 15
-17 16 -22 4 -36 -7 -9 -14 -23 -15 -32 -5 -31 9 -34 32 -6 13 16 23 24 24 17
0 -6 -4 -15 -10 -18 -5 -3 -10 -12 -10 -18 0 -7 5 -4 11 7 9 15 13 16 20 5 7
-12 7 9 0 50 -1 2 -10 -4 -20 -13 -12 -11 -21 -13 -25 -7 -4 5 3 15 14 21 17
9 27 8 45 -4 33 -22 38 -20 31 10 -6 22 -4 25 13 19 16 -5 20 0 24 22 4 25 4
25 6 -6 1 -33 1 -34 21 -16 19 17 21 17 40 0 15 -14 20 -15 20 -4 0 8 3 10 8
4 14 -20 80 -35 156 -35 73 0 77 1 71 20 -5 15 -2 20 11 20 9 0 22 7 29 17 8
10 19 14 30 9 17 -6 17 -8 1 -25 -16 -17 -16 -19 2 -23 13 -4 19 0 18 9 0 9 7
20 17 27 21 13 53 -3 51 -27 -2 -21 24 -10 52 22 21 24 22 25 48 8 24 -16 29
-16 48 -2 32 21 98 20 98 -2 0 -13 8 -9 33 15 18 18 36 32 40 32 4 0 7 -14 7
-32 l0 -32 33 32 c18 18 36 32 40 32 4 0 7 -18 7 -40 0 -46 14 -51 42 -15 16
21 28 25 69 25 46 0 49 -2 49 -25 0 -32 17 -32 42 0 11 14 30 25 43 25 13 0
30 6 38 14 11 11 27 13 71 7 45 -6 56 -5 52 5 -3 7 4 16 15 19 10 4 19 11 19
16 0 5 9 9 20 9 26 0 25 -15 -2 -34 -17 -12 -20 -18 -10 -28 9 -9 12 -8 12 5
0 20 21 22 39 5 10 -11 17 -8 33 12 14 16 22 21 25 13 8 -23 23 -14 23 13 0
14 4 23 10 19 6 -3 10 -15 10 -26 0 -36 18 -19 26 24 5 30 9 37 13 24 6 -17 8
-17 20 -3 27 32 86 8 64 -26 -4 -7 -1 -8 7 -3 9 6 12 4 8 -7 -4 -8 -1 -15 5
-16 7 0 22 -3 34 -5 18 -5 21 -2 17 16 -3 12 -6 27 -7 32 -2 6 -6 16 -10 23
-9 13 16 28 31 18 5 -3 20 6 32 19 13 14 18 25 12 25 -6 0 -18 -10 -27 -22
l-17 -23 7 24 c6 18 4 22 -6 15 -12 -6 -12 -5 0 9 14 18 26 23 17 8 -3 -5 5
-8 19 -7 19 1 97 73 302 279 153 152 273 277 267 277 -6 0 -13 -2 -15 -4z"/>
<path d="M3279 1666 c107 -107 199 -192 204 -189 6 3 7 1 3 -5 -3 -6 -2 -14 4
-17 8 -5 7 -11 -1 -21 -16 -20 -3 -30 17 -14 13 12 17 11 24 -1 5 -8 15 -14
22 -14 7 0 14 -8 16 -17 2 -10 -1 -18 -7 -18 -6 0 -8 -7 -5 -15 4 -8 10 -12
15 -9 5 3 7 10 4 15 -4 5 -2 9 4 9 10 0 10 18 -2 37 -4 6 -3 14 2 17 12 8 19
-4 16 -26 -2 -9 4 -23 13 -30 13 -11 14 -11 7 2 -8 13 -6 13 8 1 14 -11 18
-11 23 3 5 13 11 12 40 -10 28 -22 32 -29 23 -45 -13 -25 -2 -44 16 -29 7 6
17 10 21 9 5 -1 17 -1 28 0 15 1 16 3 6 17 -11 12 -10 18 3 32 16 15 18 15 34
0 13 -14 14 -20 3 -32 -10 -13 -10 -16 4 -16 9 0 16 -8 16 -17 0 -10 9 -29 20
-43 l20 -25 21 28 c25 32 51 34 102 7 l37 -20 37 20 c21 11 48 20 60 20 13 0
23 5 23 11 0 6 9 8 20 4 23 -7 63 3 56 14 -6 10 80 -3 124 -19 19 -7 45 -24
58 -39 l22 -26 23 29 c19 24 28 28 50 22 24 -6 26 -9 17 -26 -10 -18 -7 -20
21 -20 27 0 30 2 18 16 -10 13 -10 17 2 25 19 12 31 11 70 -6 27 -11 30 -14
12 -15 -34 0 -38 -20 -4 -20 16 0 31 5 33 11 3 8 22 10 63 4 35 -4 53 -10 45
-15 -7 -4 -9 -13 -5 -20 6 -9 9 -9 15 0 10 17 80 2 80 -18 0 -12 10 -14 61 -8
35 3 69 2 80 -4 13 -8 19 -7 19 0 0 7 6 8 18 2 9 -5 38 -8 64 -6 33 2 48 -1
52 -12 3 -8 19 -14 36 -14 26 0 30 4 30 26 0 32 22 27 30 -7 3 -13 14 -25 23
-25 13 -2 13 -1 2 3 -31 10 -13 23 31 23 41 0 46 -2 41 -19 -3 -14 -1 -18 9
-14 8 3 14 14 14 24 0 25 16 24 23 -1 3 -11 1 -20 -4 -20 -5 0 -9 -4 -9 -9 0
-19 54 18 57 39 2 14 -1 19 -8 14 -8 -4 -8 0 0 15 13 23 23 29 15 8 -2 -7 4
-21 14 -31 18 -15 20 -15 26 -1 3 9 2 13 -3 10 -5 -3 -12 -1 -16 4 -3 6 5 8
18 5 16 -2 31 4 48 22 13 14 24 29 24 32 0 4 3 6 6 5 3 -1 79 72 168 161 l163
163 -214 7 c-738 24 -1297 70 -1838 152 -91 14 -190 29 -220 34 -61 9 -242 42
-365 66 -44 9 -93 18 -110 20 -16 3 -41 7 -55 10 -18 4 31 -51 169 -190z"/>
<path d="M5703 1346 c-201 -205 -215 -217 -229 -200 -9 11 -13 14 -10 8 3 -6
-3 -20 -13 -30 -17 -18 -17 -20 4 -36 28 -22 58 -17 60 10 1 12 -3 18 -8 15
-5 -3 -8 0 -5 8 5 16 89 13 99 -3 3 -5 9 0 12 12 5 19 10 21 34 16 15 -4 35
-7 43 -8 8 0 20 -5 27 -10 7 -5 18 -6 25 -2 7 4 26 7 43 5 16 -2 57 -4 90 -4
54 -2 60 0 72 22 7 16 27 29 55 38 47 14 66 5 50 -23 -11 -20 19 -61 38 -49 6
4 18 1 26 -6 21 -17 32 -2 37 51 l4 45 1 -54 c2 -46 4 -52 17 -41 11 9 19 9
28 2 10 -9 17 -3 31 22 9 18 16 38 14 45 -2 8 2 15 8 18 7 2 14 -9 16 -27 3
-22 1 -30 -11 -30 -14 0 -14 -1 -1 -10 8 -5 26 -10 41 -10 14 0 31 -6 37 -12
10 -10 14 -8 18 10 7 25 24 30 24 7 0 -30 47 -48 105 -41 40 4 58 2 67 -8 10
-10 17 -11 30 -2 14 8 23 7 40 -3 19 -12 23 -11 34 4 7 9 17 14 23 10 6 -3 15
-3 21 0 5 3 46 7 89 8 48 1 85 7 93 15 6 6 24 12 39 12 15 0 31 5 34 11 5 7
14 4 26 -7 18 -16 20 -16 39 1 15 13 20 14 20 5 0 -11 3 -11 12 -2 18 18 36
15 43 -8 8 -24 25 -27 25 -4 0 13 7 15 33 10 58 -10 216 -9 229 2 7 5 24 12
38 14 15 2 25 9 24 18 -1 9 6 22 14 30 14 13 15 12 9 -2 -3 -10 1 -22 11 -30
15 -12 16 -11 3 5 -10 13 -10 17 -1 17 10 0 10 3 0 15 -7 9 -19 14 -27 11 -8
-3 -11 -1 -8 4 4 6 -70 88 -164 183 l-170 172 -597 0 -596 0 -215 -219z"/>
</g>
</svg>
